<?xml version="1.0" encoding="utf-8"?>
<!-- Generator: Adobe Illustrator 27.5.0, SVG Export Plug-In . SVG Version: 6.00 Build 0)  -->
<svg version="1.1" xmlns="http://www.w3.org/2000/svg" xmlns:xlink="http://www.w3.org/1999/xlink" x="0px" y="0px"
	 viewBox="0 0 500 500" style="enable-background:new 0 0 500 500;" xml:space="preserve">
<g id="BACKGROUND">
	<rect style="fill:#FFFFFF;" width="500" height="500"/>
	<path style="fill:#E6ECF3;" d="M486.159,171.824c-0.739-20.68-2.194-42.212-20.181-60.479
		c-17.775-18.051-56.795-31.71-93.155-26.297c-8.549-0.55-17.102-1.09-25.659-1.616c-6.486-5.852-14.419-9.588-22.477-12.823
		c-8.356-3.355-16.887-6.282-25.532-8.8c-17.419-5.074-35.324-8.435-53.381-10.166c-17.783-1.705-35.728-1.746-53.516-0.079
		c-18.007,1.687-35.868,5.037-53.204,10.204c-8.61,2.566-17.089,5.573-25.385,9.022c-8.689,3.612-17.337,7.536-25.455,12.314
		c-2.101,1.237-4.156,2.548-6.159,3.939c-0.563,0.391-1.01,0.899-1.33,1.465c-12.096,3.457-22.873,7.997-31.521,13.956
		c-20.545,14.158-24.325,33.218-25.837,51.18c-4.081,48.465,2.617,96.985,9.311,145.366c3.516,25.414,7.033,50.828,10.549,76.242
		c1.144,8.266,2.344,16.672,7.872,24.406c9.8,13.71,32.5,23.879,57.632,29.546c13.329,3.005,27.345,4.879,41.624,6.106
		c0.292,0.816,0.849,1.551,1.619,2.067c15.014,10.06,31.894,17.218,49.326,21.873c18.183,4.855,37.038,7.022,55.83,7.344
		c20.143,0.344,40.263-1.411,60.221-4.01c19.277-2.51,38.869-5.229,57.089-12.323c13.857-5.395,26.762-13.304,36.703-24.354
		c5.392-1.211,10.495-2.725,15.091-4.696c17.104-7.333,23.947-19.476,29.083-30.931
		C487.235,319.094,488.777,245.049,486.159,171.824z M320.978,447.547c-3.305,0.703-6.628,1.321-9.965,1.855
		c-3.438,0.55-5.949,0.884-9.473,1.259c-19.892,2.117-39.643,1.315-58.976-2.478c8.531,0.454,17.11,0.379,25.599,0.317
		c16.301-0.119,32.617-0.63,48.845-2.245c6.084-0.605,12.161-1.358,18.208-2.301C330.517,445.328,325.767,446.529,320.978,447.547z
		 M203.509,77.578c31.155-1.544,62.653-3.439,93.728,0.267c0.057,0.007,0.114,0.015,0.171,0.022
		c2.496,0.939,4.924,1.972,7.253,3.114c0.019,0.009,0.038,0.02,0.058,0.029c-35.273-1.83-70.606-3.111-105.986-3.186
		C200.326,77.74,201.918,77.657,203.509,77.578z M192.669,70.662c2.636-0.302,5.275-0.582,7.919-0.818
		c11.965-1.064,23.988-1.461,35.997-1.205c-9.108,0.296-18.212,0.727-27.313,1.16C203.738,70.063,198.202,70.333,192.669,70.662z
		 M221.587,437.988c43.747,0.331,87.541-1.339,130.768-4.982c-9.266,2.181-18.653,3.798-27.834,4.919
		c-15.961,1.948-32.044,2.709-48.113,2.978c-8.21,0.137-16.429,0.206-24.64,0.065c-8.338-0.143-16.79-0.561-24.917-1.94
		C225.089,438.728,223.334,438.376,221.587,437.988z M103.675,83.406c2.303-1.103,4.622-2.168,6.945-3.204
		c7.688-3.429,15.837-6.536,24.05-9.213c8.399-2.738,16.936-5.049,25.566-6.935c8.421-1.841,17.135-3.314,25.368-4.286
		c17.516-2.067,35.226-2.464,52.82-1.234c17.471,1.222,34.524,4.038,51.631,8.538c4.78,1.257,9.522,2.654,14.229,4.162
		c-1.729-0.263-3.463-0.503-5.2-0.724c-14.982-5.503-31.45-7.617-47.177-8.695c-31.032-2.128-62.381,0.229-92.776,6.825
		c-8.292,1.799-16.54,3.889-24.654,6.375c-4.99,1.529-9.967,3.372-14.416,6.077C114.498,81.735,109.02,82.499,103.675,83.406z
		 M264.06,459.132c-18.59,0.113-36.789-1.422-54.785-5.619c-15.753-3.674-30.785-9.187-44.764-17.184
		c8.022,0.473,16.082,0.795,24.112,1.041c0.116,0.004,0.233,0.006,0.349,0.009c2.026,1.058,4.064,2.093,6.132,3.072
		c6.396,3.027,12.963,5.711,19.65,8.023c13.234,4.574,26.931,7.609,40.822,9.318c4.776,0.588,9.578,0.992,14.39,1.236
		C267.998,459.076,266.03,459.12,264.06,459.132z M376.23,441.468c-3.51,1.55-7.982,3.18-12.063,4.465
		c-4.499,1.416-9.065,2.61-13.665,3.645c-7.317,1.646-14.716,2.885-22.134,3.976c3.268-0.794,6.517-1.667,9.738-2.625
		c15.003-4.461,29.508-10.723,42.987-18.685c0.259-0.153,0.486-0.321,0.685-0.502c1.688-0.663,3.365-1.354,5.034-2.065
		c3.721-0.416,7.448-0.87,11.129-1.401C391.469,433.643,384.061,438.01,376.23,441.468z"/>
</g>
<g id="OBJECTS">
	<g>
		<g>
			<path style="fill:#8B342D;" d="M82.12,153.833c-4.969-0.019-9.942-0.027-14.909-0.092c-9.432-0.123-23.139-5.4-30.222,3.309
				c-4.294,5.279-2.168,12.755,2.448,17.175c3.632,3.478,8.596,5.455,13.619,6.6c11.214,2.555,23.318,1.263,33.766-3.361
				c4.769-2.111,9.409-5.108,11.705-9.592c2.296-4.484,1.442-10.683-2.996-13.363C91.718,152.207,86.291,152.839,82.12,153.833"/>
		</g>
		<path style="fill:#EB6867;" d="M43.772,177.4c0,0,0.555-13.905,22.423-16.531c21.868-2.627,32.331,7.003,32.331,7.003
			s-5.937,6.773-8.821,8.183c-2.884,1.41-13.488,5.668-22.495,6.063s-22.772-3.282-23.438-3.913
			C43.106,177.574,43.772,177.4,43.772,177.4z"/>
		<path style="fill:#F3F3EC;" d="M43.262,176.535c0.387-1.219,0.129-6.219,2.963-5.61c2.835,0.61,7.988,3.537,15.204,3.537
			c7.215,0,16.878-2.439,21.13-3.537c4.252-1.098,4.896,0,5.669,1.098c0.773,1.098,1.477,4.031,1.477,4.031
			s-14.781,6.401-22.495,6.063S47.127,179.828,43.262,176.535z"/>
		<path style="fill:#F3F3EC;" d="M48.24,152.046c0,0,2.027,9.363,11.333,9.839c9.306,0.476,18.486,0.595,22.762-2.023
			c4.276-2.619,7.371-6.626,7.371-6.626s-17.934,1.151-23.719,0.318C60.202,152.719,48.24,152.046,48.24,152.046z"/>
		<path style="fill:#BB3F72;" d="M44.913,178.009c2.398,3.897,3.209,10.041,23.091,9.785c19.882-0.256,21.701-11.74,21.701-11.74
			s-15.994,6.063-23.46,6.063C57.184,182.117,44.913,178.009,44.913,178.009z"/>
		<path style="fill:#BB3F72;" d="M48.24,152.046c4.488-5.104,22.119-5.863,32.217-3.891c10.098,1.972,11.043,4.967,11.043,4.967
			s-10.885,0.717-15.851,0.687c-4.965-0.031-21.782-1.538-22.262-1.577C52.907,152.193,48.24,152.046,48.24,152.046z"/>
		<g>
			<g>
				<path style="fill:#2C2752;" d="M82.12,153.458c-3.541-0.013-7.083-0.021-10.624-0.048c-2.735-0.021-5.458-0.013-8.18-0.313
					c-4.735-0.522-9.45-1.498-14.233-1.422c-4.383,0.07-8.804,1.195-11.859,4.529c-3.412,3.724-3.635,8.923-1.569,13.378
					c2.304,4.966,7.013,8.141,11.999,10.029c5.663,2.145,11.891,2.973,17.925,2.874c6.225-0.101,12.445-1.256,18.284-3.419
					c5.006-1.854,10.214-4.407,13.538-8.735c2.79-3.632,3.733-8.71,1.456-12.855c-2.587-4.71-8.307-5.32-13.13-4.695
					c-1.248,0.162-2.483,0.402-3.708,0.69c-0.47,0.11-0.271,0.834,0.199,0.723c4.628-1.088,10.889-1.922,14.608,1.803
					c3.292,3.298,3.19,8.751,0.89,12.553c-2.771,4.582-7.846,7.318-12.667,9.257c-5.354,2.154-11.055,3.446-16.813,3.82
					c-5.775,0.375-11.649-0.143-17.228-1.707c-5.158-1.446-10.455-4-13.511-8.587c-2.657-3.988-3.551-9.428-0.616-13.528
					c2.667-3.724,7.043-5.177,11.456-5.359c4.413-0.182,8.797,0.614,13.156,1.18c5.235,0.68,10.509,0.545,15.779,0.565
					c1.615,0.006,3.23,0.011,4.846,0.017C82.603,154.21,82.603,153.46,82.12,153.458L82.12,153.458z"/>
			</g>
		</g>
		<g>
			<g>
				<path style="fill:#2C2752;" d="M47.124,169.997c2.203-2.667,4.8-5.195,8.181-6.244c0.459-0.143,0.263-0.867-0.199-0.723
					c-3.507,1.089-6.222,3.665-8.512,6.437C46.289,169.836,46.816,170.369,47.124,169.997L47.124,169.997z"/>
			</g>
		</g>
		<g>
			<g>
				<path style="fill:#2C2752;" d="M84.195,162.803c-0.038,0-0.076,0-0.113,0c-0.103-0.004-0.2,0.018-0.289,0.065
					c-0.093,0.03-0.173,0.082-0.241,0.155c-0.073,0.068-0.125,0.148-0.155,0.241c-0.047,0.089-0.068,0.186-0.065,0.289
					c0.009,0.066,0.018,0.133,0.027,0.199c0.036,0.127,0.1,0.237,0.193,0.331c0.051,0.039,0.101,0.078,0.152,0.117
					c0.117,0.068,0.243,0.102,0.379,0.102c0.038,0,0.076,0,0.113,0c0.103,0.004,0.2-0.018,0.289-0.065
					c0.093-0.03,0.173-0.082,0.241-0.155c0.073-0.068,0.125-0.148,0.155-0.241c0.047-0.089,0.069-0.186,0.065-0.289
					c-0.009-0.067-0.018-0.133-0.027-0.199c-0.036-0.127-0.1-0.237-0.193-0.331c-0.051-0.039-0.101-0.078-0.152-0.117
					C84.457,162.837,84.331,162.803,84.195,162.803L84.195,162.803z"/>
			</g>
		</g>
		<g>
			<g>
				<path style="fill:#2C2752;" d="M85.102,167.092c0.038,0,0.076,0,0.113,0c0.103,0.004,0.2-0.018,0.289-0.065
					c0.093-0.03,0.173-0.082,0.241-0.155c0.073-0.068,0.125-0.148,0.155-0.241c0.047-0.089,0.068-0.186,0.065-0.289
					c-0.009-0.066-0.018-0.133-0.027-0.199c-0.036-0.127-0.1-0.237-0.193-0.331c-0.051-0.039-0.101-0.078-0.152-0.117
					c-0.117-0.068-0.243-0.102-0.379-0.102c-0.038,0-0.076,0-0.113,0c-0.103-0.004-0.2,0.018-0.289,0.065
					c-0.093,0.03-0.173,0.082-0.241,0.155c-0.073,0.068-0.125,0.148-0.155,0.241c-0.047,0.089-0.069,0.186-0.065,0.289
					c0.009,0.066,0.018,0.133,0.027,0.199c0.036,0.127,0.1,0.237,0.193,0.331c0.051,0.039,0.101,0.078,0.152,0.117
					C84.84,167.057,84.967,167.091,85.102,167.092L85.102,167.092z"/>
			</g>
		</g>
		<g>
			<g>
				<path style="fill:#2C2752;" d="M88.842,166.234c0.965,0,0.967-1.5,0-1.5C87.877,164.734,87.875,166.234,88.842,166.234
					L88.842,166.234z"/>
			</g>
		</g>
	</g>
	<g>
		<path style="fill:#BB3F72;" d="M420.716,183.201c1.782,0.819,3.676,1.467,5.619,1.987c6.195,1.658,13.15,1.957,19.12-0.182
			c5.97-2.139,10.66-7.026,10.603-12.353c-1.804,0.456-3.613,0.913-5.468,1.201c-2.741,0.426-5.544,0.478-8.324,0.67
			c-4.192,0.288-8.349,0.894-12.549,1.081c-4.201,0.186-8.521-0.068-12.386-1.426c-1.469-0.516-4.504-2.123-6.153-1.388
			c-1.643,0.732-0.424,2.403,0.288,3.31C413.764,179.03,417.01,181.498,420.716,183.201z"/>
		<path style="fill:#BB3F72;" d="M411.71,149.938c1.916-2.029,7.737-4.519,13.825-2.149c7.665,2.985,14.405-0.511,19.574-1.074
			c7.665-0.836,11.635,3.223,11.635,3.223l-15.604,6.208c0,0-10.129,0.597-16.152-0.716
			C418.964,154.117,411.71,149.938,411.71,149.938z"/>
		<g>
			<path style="fill:#8B342D;" d="M462.733,153.088c-0.651-0.772-1.509-1.435-2.609-1.949c-3.155-1.476-6.994-1.31-10.482-0.607
				c-5.768,1.162-11.233,5.79-17.32,5.087c-5.815-0.671-10.462-4.418-16.288-5.033c-4.825-0.509-10.339,0.648-12.16,4.884
				c-1.31,3.048-1.081,6.504,0.207,9.559c1.288,3.055,3.575,5.734,6.253,8.002c4.499,3.809,10.214,6.555,16.362,7.631
				c6.502,1.138,13.341,0.394,19.544-1.652c5.107-1.685,9.93-4.321,13.193-8.14C462.914,166.794,466.752,157.852,462.733,153.088z"
				/>
		</g>
		<path style="fill:#EB6867;" d="M414.309,172.567c0,0,4.728-10.68,19.398-11.949c14.67-1.269,28.128,4.653,28.128,6.027
			c0,0-2.304,5.922-5.941,7.931c-3.637,2.009-12.124,5.181-16.489,6.027c-4.365,0.846-14.185,1.163-19.277-2.432
			C415.036,174.576,414.309,172.567,414.309,172.567z"/>
		<path style="fill:#F3F3EC;" d="M409.915,172.166c0.305-3.456,1.219-6.247,3.658-5.583c2.438,0.665,10.058,6.114,21.488,4.785
			c11.43-1.329,16.612-6.646,20.117-5.317c3.505,1.329,4.255,4.817,4.255,4.817s-7.957,7.273-13.193,8.14
			c-5.236,0.867-11.332,3.126-15.142,2.462c-3.81-0.665-13.716-3.456-16.154-5.45C412.506,174.027,409.915,172.166,409.915,172.166z
			"/>
		<path style="fill:#F3F3EC;" d="M410.677,151.298c-1.372,4.121,1.829,10.235,5.639,11.83c3.81,1.595,29.238,5.425,37.491-2.924
			c3.81-3.855,1.981-10.501,1.524-10.102c-0.457,0.399-4.434-1.015-11.43,2.525c-8.535,4.319-14.036,2.806-14.036,2.806
			s-12.536-5.423-15.987-4.933C408.318,151.29,410.677,151.298,410.677,151.298z"/>
		<g>
			<g>
				<path style="fill:#2C2752;" d="M462.998,152.823c-3.587-4.079-10.394-3.671-15.123-2.226c-5.032,1.538-9.775,5.161-15.26,4.677
					c-5.554-0.49-10.234-4.106-15.709-4.948c-4.073-0.627-9.361-0.197-12.228,3.158c-3.496,4.092-2.113,10.448,0.593,14.534
					c2.97,4.486,7.615,7.907,12.437,10.176c10.532,4.955,23.224,4.232,33.595-0.827c4.355-2.124,8.177-5.177,10.607-9.417
					c2.075-3.621,3.838-8.479,2.465-12.643C464.072,154.39,463.606,153.57,462.998,152.823c-0.305-0.374-0.833,0.159-0.53,0.53
					c2.874,3.532,1.439,8.816-0.317,12.519c-1.977,4.168-5.095,7.373-9.072,9.698c-9.365,5.475-21.607,6.891-31.858,3.264
					c-4.926-1.743-9.585-4.624-13.147-8.471c-3.622-3.913-6.349-9.961-3.667-15.145c2.055-3.972,7.372-4.656,11.368-4.281
					c5.087,0.477,9.421,3.477,14.317,4.662c2.627,0.636,5.19,0.556,7.777-0.219c2.576-0.772,4.977-2.012,7.452-3.044
					c2.736-1.141,5.569-1.853,8.544-1.941c3.085-0.092,6.475,0.539,8.603,2.959C462.787,153.716,463.316,153.184,462.998,152.823z"
					/>
			</g>
		</g>
		<g>
			<g>
				<path style="fill:#2C2752;" d="M441.84,167.021c-0.072,0-0.144,0-0.216,0c-0.103-0.004-0.2,0.018-0.289,0.065
					c-0.093,0.03-0.173,0.082-0.241,0.155c-0.073,0.068-0.125,0.148-0.155,0.241c-0.047,0.089-0.068,0.186-0.065,0.289
					c0.009,0.066,0.018,0.133,0.027,0.199c0.036,0.127,0.1,0.237,0.193,0.331c0.051,0.039,0.101,0.078,0.152,0.117
					c0.117,0.068,0.243,0.102,0.379,0.102c0.072,0,0.144,0,0.216,0c0.103,0.004,0.2-0.018,0.289-0.065
					c0.093-0.03,0.173-0.082,0.241-0.155c0.073-0.068,0.125-0.148,0.155-0.241c0.047-0.089,0.069-0.186,0.065-0.289
					c-0.009-0.066-0.018-0.133-0.027-0.199c-0.036-0.127-0.1-0.237-0.193-0.331c-0.051-0.039-0.101-0.078-0.152-0.117
					C442.101,167.055,441.975,167.021,441.84,167.021L441.84,167.021z"/>
			</g>
		</g>
		<g>
			<g>
				<path style="fill:#2C2752;" d="M452.289,164.293c0-0.031,0-0.063,0-0.094c0.004-0.103-0.018-0.2-0.065-0.289
					c-0.03-0.093-0.082-0.173-0.155-0.241c-0.068-0.073-0.148-0.125-0.241-0.155c-0.089-0.047-0.186-0.068-0.289-0.065
					c-0.066,0.009-0.133,0.018-0.199,0.027c-0.127,0.036-0.237,0.1-0.331,0.193c-0.039,0.051-0.078,0.101-0.117,0.152
					c-0.068,0.117-0.102,0.243-0.102,0.379c0,0.031,0,0.063,0,0.094c-0.004,0.103,0.018,0.2,0.065,0.289
					c0.03,0.093,0.082,0.173,0.155,0.241c0.068,0.073,0.148,0.125,0.241,0.155c0.089,0.047,0.186,0.068,0.289,0.065
					c0.066-0.009,0.133-0.018,0.199-0.027c0.127-0.036,0.237-0.1,0.331-0.193c0.039-0.051,0.078-0.101,0.117-0.152
					C452.254,164.555,452.288,164.429,452.289,164.293L452.289,164.293z"/>
			</g>
		</g>
		<g>
			<g>
				<path style="fill:#2C2752;" d="M447.767,166.923c0.965,0,0.967-1.5,0-1.5C446.802,165.423,446.8,166.923,447.767,166.923
					L447.767,166.923z"/>
			</g>
		</g>
		<g>
			<g>
				<path style="fill:#2C2752;" d="M444.103,166.547c0.965,0,0.967-1.5,0-1.5C443.138,165.047,443.136,166.547,444.103,166.547
					L444.103,166.547z"/>
			</g>
		</g>
	</g>
	<g>
		<path style="fill:#BB3F72;" d="M262.081,105.117c1.476,0.961,3.279,1.251,5.028,1.448c2.731,0.306,5.48,0.437,8.228,0.448
			c5.264,0.021,10.598-0.41,15.568-2.144c1.054-0.368,2.103-0.801,2.987-1.482c1.868-1.439,2.805-3.991,2.312-6.297
			c-0.016-0.075-0.036-0.153-0.092-0.205c-0.077-0.072-0.196-0.068-0.301-0.06c-4.881,0.382-9.656,1.575-14.468,2.482
			c-4.811,0.908-9.758,1.532-14.594,0.767c-1.65-0.261-5.313-1.413-6.585,0.227C258.966,101.846,260.816,104.293,262.081,105.117z"
			/>
		<path style="fill:#BB3F72;" d="M257.762,83.099c4.516-2.717,9.745-4.072,14.986-4.63c5.24-0.558,10.529-0.353,15.794-0.144
			c2.17,0.086,4.359,0.175,6.464,0.71c0.641,0.163,1.286,0.374,1.809,0.779c0.523,0.405,0.909,1.037,0.868,1.697
			c-0.041,0.657-0.497,1.233-1.054,1.585c-0.557,0.352-1.208,0.517-1.849,0.671c-11.779,2.817-24.113,3.294-36.074,1.396
			c-0.474-0.075-1.022-0.209-1.215-0.649c-0.184-0.42,0.082-0.929,0.473-1.169c0.391-0.24,0.869-0.278,1.327-0.303"/>
		<g>
			<path style="fill:#8B342D;" d="M304.66,83.016c-2.744-2.601-7.489-1.549-10.808-1.123c-4.032,0.518-8.033,1.277-12.087,1.617
				c-6.802,0.572-13.65,0.589-20.455,0.045c-2.125-0.17-4.355-0.378-6.308,0.477c-1.575,0.689-2.809,2.024-3.614,3.543
				c-0.539,1.016-0.906,2.134-0.969,3.282c-0.135,2.463,1.163,4.85,2.998,6.498c1.836,1.648,4.16,2.65,6.507,3.409
				c9.378,3.035,19.626,2.576,29.184,0.164c3.645-0.92,7.282-2.148,10.331-4.346c2.044-1.474,3.785-3.368,5.083-5.528
				c0.747-1.243,1.357-2.606,1.482-4.051C306.129,85.557,305.712,84.014,304.66,83.016z"/>
		</g>
		<path style="fill:#F3F3EC;" d="M258.344,83.436c1.007,2.72,2.519,7.253,6.75,7.757c4.231,0.504,23.876,1.713,28.711-1.914
			s6.735-6.253,3.727-7.757c-0.202-0.101-13.298,2.72-16.723,2.619C277.385,84.04,258.344,83.436,258.344,83.436z"/>
		<path style="fill:#EB6867;" d="M270.564,94.45c1.207-1.257,2.265-2.657,3.539-3.847c2.224-2.077,5.088-3.459,8.099-3.906
			c0.893-0.133,1.805-0.185,2.7-0.06c3.04,0.423,5.616,3.103,5.92,6.158c0.09,0.91-0.001,1.828-0.137,2.732
			c-0.1,0.667-0.236,1.356-0.635,1.899c-0.301,0.409-0.729,0.704-1.164,0.966c-3.04,1.826-6.672,2.31-10.19,2.756
			c-4.211,0.534-8.728,1.016-12.489-0.951c-1.732-0.906-1.156-1.599,0.127-2.322C267.895,96.993,269.326,95.739,270.564,94.45z"/>
		<path style="fill:#F3F3EC;" d="M297.265,97.723c-0.021-0.72-0.101-1.554-0.7-1.955c-0.483-0.323-1.122-0.232-1.69-0.113
			c-4.863,1.011-9.479,3.1-14.398,3.79c-6.233,0.875-12.525-0.544-18.728-1.607c-0.259-0.044-0.527-0.088-0.78-0.02
			c-0.858,0.23-0.915,1.413-0.786,2.292c1.691,0.171,3.275,1.369,4.921,1.792c4.66,1.198,9.568,1.165,14.333,0.503
			s9.421-1.939,14.061-3.212C294.715,98.859,296.049,98.058,297.265,97.723z"/>
		<g>
			<g>
				<path style="fill:#2C2752;" d="M304.925,82.751c-2.653-2.396-6.49-1.878-9.744-1.418c-4.894,0.691-9.783,1.541-14.715,1.905
					c-5.137,0.378-10.296,0.439-15.44,0.183c-4.109-0.204-9.128-1.477-12.384,1.806c-2.804,2.828-3.406,7.052-1.197,10.405
					c2.361,3.585,6.719,5.132,10.688,6.166c9.06,2.36,18.715,1.695,27.701-0.669c4.71-1.239,9.335-3.131,12.693-6.789
					C305.167,91.463,308.344,86.247,304.925,82.751c-0.338-0.346-0.868,0.185-0.53,0.53c3.237,3.311-0.326,8.435-2.833,10.984
					c-2.917,2.967-6.736,4.66-10.681,5.797c-8.216,2.368-17.092,3.247-25.54,1.681c-3.996-0.741-8.56-1.865-11.656-4.654
					c-1.47-1.324-2.604-3.12-2.847-5.109c-0.256-2.09,0.6-4.223,1.947-5.801c2.972-3.481,7.875-2.238,11.871-2.026
					c4.586,0.243,9.184,0.232,13.769-0.031c5.07-0.29,10.037-1.139,15.063-1.806c3.448-0.457,8.022-1.642,10.909,0.966
					C304.752,83.604,305.284,83.076,304.925,82.751z"/>
			</g>
		</g>
	</g>
	<g>
		<g>
			<g>
				
					<line style="fill:#2C2752;stroke:#004172;stroke-width:1.9525;stroke-miterlimit:10;" x1="90.951" y1="288.109" x2="90.951" y2="282.24"/>
				<g>
					
						<line style="fill:#2C2752;stroke:#004172;stroke-width:1.9525;stroke-miterlimit:10;" x1="15.702" y1="288.109" x2="15.702" y2="250.779"/>
					
						<line style="fill:#2C2752;stroke:#004172;stroke-width:1.9525;stroke-miterlimit:10;" x1="25.108" y1="288.109" x2="25.108" y2="263.409"/>
					
						<line style="fill:#2C2752;stroke:#004172;stroke-width:1.9525;stroke-miterlimit:10;" x1="34.514" y1="288.109" x2="34.514" y2="279.498"/>
					
						<line style="fill:#2C2752;stroke:#004172;stroke-width:1.9525;stroke-miterlimit:10;" x1="43.92" y1="288.109" x2="43.92" y2="272.185"/>
					
						<line style="fill:#2C2752;stroke:#004172;stroke-width:1.9525;stroke-miterlimit:10;" x1="53.327" y1="288.109" x2="53.327" y2="264.871"/>
					
						<line style="fill:#2C2752;stroke:#004172;stroke-width:1.9525;stroke-miterlimit:10;" x1="62.733" y1="288.109" x2="62.733" y2="257.192"/>
					
						<line style="fill:#2C2752;stroke:#004172;stroke-width:1.9525;stroke-miterlimit:10;" x1="72.139" y1="288.109" x2="72.139" y2="266.334"/>
					
						<line style="fill:#2C2752;stroke:#004172;stroke-width:1.9525;stroke-miterlimit:10;" x1="81.545" y1="288.109" x2="81.545" y2="274.013"/>
					
						<line style="fill:#2C2752;stroke:#004172;stroke-width:1.9525;stroke-miterlimit:10;" x1="100.357" y1="288.109" x2="100.357" y2="278.218"/>
					
						<line style="fill:#2C2752;stroke:#004172;stroke-width:1.9525;stroke-miterlimit:10;" x1="109.763" y1="288.109" x2="109.763" y2="271.636"/>
					
						<line style="fill:#2C2752;stroke:#004172;stroke-width:1.9525;stroke-miterlimit:10;" x1="119.169" y1="288.109" x2="119.169" y2="277.222"/>
					
						<line style="fill:#2C2752;stroke:#004172;stroke-width:1.9525;stroke-miterlimit:10;" x1="128.575" y1="288.109" x2="128.575" y2="270.356"/>
				</g>
				
					<line style="fill:#2C2752;stroke:#004172;stroke-width:1.9525;stroke-miterlimit:10;" x1="212.376" y1="288.109" x2="212.376" y2="282.24"/>
				<g>
					
						<line style="fill:#2C2752;stroke:#004172;stroke-width:1.9525;stroke-miterlimit:10;" x1="137.127" y1="288.109" x2="137.127" y2="250.779"/>
					
						<line style="fill:#2C2752;stroke:#004172;stroke-width:1.9525;stroke-miterlimit:10;" x1="146.533" y1="288.109" x2="146.533" y2="263.409"/>
					
						<line style="fill:#2C2752;stroke:#004172;stroke-width:1.9525;stroke-miterlimit:10;" x1="155.939" y1="288.109" x2="155.939" y2="279.498"/>
					
						<line style="fill:#2C2752;stroke:#004172;stroke-width:1.9525;stroke-miterlimit:10;" x1="165.345" y1="288.109" x2="165.345" y2="272.185"/>
					
						<line style="fill:#2C2752;stroke:#004172;stroke-width:1.9525;stroke-miterlimit:10;" x1="174.751" y1="288.109" x2="174.751" y2="264.871"/>
					
						<line style="fill:#2C2752;stroke:#004172;stroke-width:1.9525;stroke-miterlimit:10;" x1="184.157" y1="288.109" x2="184.157" y2="257.192"/>
					
						<line style="fill:#2C2752;stroke:#004172;stroke-width:1.9525;stroke-miterlimit:10;" x1="193.563" y1="288.109" x2="193.563" y2="266.334"/>
					
						<line style="fill:#2C2752;stroke:#004172;stroke-width:1.9525;stroke-miterlimit:10;" x1="202.969" y1="288.109" x2="202.969" y2="274.013"/>
					
						<line style="fill:#2C2752;stroke:#004172;stroke-width:1.9525;stroke-miterlimit:10;" x1="221.782" y1="288.109" x2="221.782" y2="278.218"/>
					
						<line style="fill:#2C2752;stroke:#004172;stroke-width:1.9525;stroke-miterlimit:10;" x1="231.188" y1="288.109" x2="231.188" y2="271.636"/>
					
						<line style="fill:#2C2752;stroke:#004172;stroke-width:1.9525;stroke-miterlimit:10;" x1="240.594" y1="288.109" x2="240.594" y2="277.222"/>
					
						<line style="fill:#2C2752;stroke:#004172;stroke-width:1.9525;stroke-miterlimit:10;" x1="250" y1="288.109" x2="250" y2="270.356"/>
				</g>
			</g>
			<g>
				
					<line style="fill:#2C2752;stroke:#004172;stroke-width:1.9525;stroke-miterlimit:10;" x1="409.049" y1="288.109" x2="409.049" y2="282.24"/>
				<g>
					
						<line style="fill:#2C2752;stroke:#004172;stroke-width:1.9525;stroke-miterlimit:10;" x1="484.298" y1="288.109" x2="484.298" y2="250.779"/>
					
						<line style="fill:#2C2752;stroke:#004172;stroke-width:1.9525;stroke-miterlimit:10;" x1="474.892" y1="288.109" x2="474.892" y2="263.409"/>
					
						<line style="fill:#2C2752;stroke:#004172;stroke-width:1.9525;stroke-miterlimit:10;" x1="465.486" y1="288.109" x2="465.486" y2="279.498"/>
					
						<line style="fill:#2C2752;stroke:#004172;stroke-width:1.9525;stroke-miterlimit:10;" x1="456.079" y1="288.109" x2="456.079" y2="272.185"/>
					
						<line style="fill:#2C2752;stroke:#004172;stroke-width:1.9525;stroke-miterlimit:10;" x1="446.673" y1="288.109" x2="446.673" y2="264.871"/>
					
						<line style="fill:#2C2752;stroke:#004172;stroke-width:1.9525;stroke-miterlimit:10;" x1="437.267" y1="288.109" x2="437.267" y2="257.192"/>
					
						<line style="fill:#2C2752;stroke:#004172;stroke-width:1.9525;stroke-miterlimit:10;" x1="427.861" y1="288.109" x2="427.861" y2="266.334"/>
					
						<line style="fill:#2C2752;stroke:#004172;stroke-width:1.9525;stroke-miterlimit:10;" x1="418.455" y1="288.109" x2="418.455" y2="274.013"/>
					
						<line style="fill:#2C2752;stroke:#004172;stroke-width:1.9525;stroke-miterlimit:10;" x1="399.643" y1="288.109" x2="399.643" y2="278.218"/>
					
						<line style="fill:#2C2752;stroke:#004172;stroke-width:1.9525;stroke-miterlimit:10;" x1="390.237" y1="288.109" x2="390.237" y2="271.636"/>
					
						<line style="fill:#2C2752;stroke:#004172;stroke-width:1.9525;stroke-miterlimit:10;" x1="380.831" y1="288.109" x2="380.831" y2="277.222"/>
					
						<line style="fill:#2C2752;stroke:#004172;stroke-width:1.9525;stroke-miterlimit:10;" x1="371.425" y1="288.109" x2="371.425" y2="270.356"/>
				</g>
				
					<line style="fill:#2C2752;stroke:#004172;stroke-width:1.9525;stroke-miterlimit:10;" x1="287.624" y1="288.109" x2="287.624" y2="282.24"/>
				<g>
					
						<line style="fill:#2C2752;stroke:#004172;stroke-width:1.9525;stroke-miterlimit:10;" x1="362.873" y1="288.109" x2="362.873" y2="250.779"/>
					
						<line style="fill:#2C2752;stroke:#004172;stroke-width:1.9525;stroke-miterlimit:10;" x1="353.467" y1="288.109" x2="353.467" y2="263.409"/>
					
						<line style="fill:#2C2752;stroke:#004172;stroke-width:1.9525;stroke-miterlimit:10;" x1="344.061" y1="288.109" x2="344.061" y2="279.498"/>
					
						<line style="fill:#2C2752;stroke:#004172;stroke-width:1.9525;stroke-miterlimit:10;" x1="334.655" y1="288.109" x2="334.655" y2="272.185"/>
					
						<line style="fill:#2C2752;stroke:#004172;stroke-width:1.9525;stroke-miterlimit:10;" x1="325.249" y1="288.109" x2="325.249" y2="264.871"/>
					
						<line style="fill:#2C2752;stroke:#004172;stroke-width:1.9525;stroke-miterlimit:10;" x1="315.842" y1="288.109" x2="315.842" y2="257.192"/>
					
						<line style="fill:#2C2752;stroke:#004172;stroke-width:1.9525;stroke-miterlimit:10;" x1="306.436" y1="288.109" x2="306.436" y2="266.334"/>
					
						<line style="fill:#2C2752;stroke:#004172;stroke-width:1.9525;stroke-miterlimit:10;" x1="297.03" y1="288.109" x2="297.03" y2="274.013"/>
					
						<line style="fill:#2C2752;stroke:#004172;stroke-width:1.9525;stroke-miterlimit:10;" x1="278.218" y1="288.109" x2="278.218" y2="278.218"/>
					
						<line style="fill:#2C2752;stroke:#004172;stroke-width:1.9525;stroke-miterlimit:10;" x1="268.812" y1="288.109" x2="268.812" y2="271.636"/>
					
						<line style="fill:#2C2752;stroke:#004172;stroke-width:1.9525;stroke-miterlimit:10;" x1="259.406" y1="288.109" x2="259.406" y2="277.222"/>
				</g>
			</g>
		</g>
		<g>
			<g>
				
					<line style="fill:#2C2752;stroke:#004172;stroke-width:1.9525;stroke-miterlimit:10;" x1="409.049" y1="287.332" x2="409.049" y2="293.201"/>
				<g>
					
						<line style="fill:#2C2752;stroke:#004172;stroke-width:1.9525;stroke-miterlimit:10;" x1="484.298" y1="287.332" x2="484.298" y2="324.662"/>
					
						<line style="fill:#2C2752;stroke:#004172;stroke-width:1.9525;stroke-miterlimit:10;" x1="474.892" y1="287.332" x2="474.892" y2="312.033"/>
					
						<line style="fill:#2C2752;stroke:#004172;stroke-width:1.9525;stroke-miterlimit:10;" x1="465.486" y1="287.332" x2="465.486" y2="295.943"/>
					
						<line style="fill:#2C2752;stroke:#004172;stroke-width:1.9525;stroke-miterlimit:10;" x1="456.079" y1="287.332" x2="456.079" y2="303.257"/>
					
						<line style="fill:#2C2752;stroke:#004172;stroke-width:1.9525;stroke-miterlimit:10;" x1="446.673" y1="287.332" x2="446.673" y2="310.57"/>
					
						<line style="fill:#2C2752;stroke:#004172;stroke-width:1.9525;stroke-miterlimit:10;" x1="437.267" y1="287.332" x2="437.267" y2="318.249"/>
					
						<line style="fill:#2C2752;stroke:#004172;stroke-width:1.9525;stroke-miterlimit:10;" x1="427.861" y1="287.332" x2="427.861" y2="309.107"/>
					
						<line style="fill:#2C2752;stroke:#004172;stroke-width:1.9525;stroke-miterlimit:10;" x1="418.455" y1="287.332" x2="418.455" y2="301.428"/>
					
						<line style="fill:#2C2752;stroke:#004172;stroke-width:1.9525;stroke-miterlimit:10;" x1="399.643" y1="287.332" x2="399.643" y2="297.223"/>
					
						<line style="fill:#2C2752;stroke:#004172;stroke-width:1.9525;stroke-miterlimit:10;" x1="390.237" y1="287.332" x2="390.237" y2="303.805"/>
					
						<line style="fill:#2C2752;stroke:#004172;stroke-width:1.9525;stroke-miterlimit:10;" x1="380.831" y1="287.332" x2="380.831" y2="298.22"/>
					
						<line style="fill:#2C2752;stroke:#004172;stroke-width:1.9525;stroke-miterlimit:10;" x1="371.425" y1="287.332" x2="371.425" y2="305.085"/>
				</g>
				
					<line style="fill:#2C2752;stroke:#004172;stroke-width:1.9525;stroke-miterlimit:10;" x1="287.624" y1="287.332" x2="287.624" y2="293.201"/>
				<g>
					
						<line style="fill:#2C2752;stroke:#004172;stroke-width:1.9525;stroke-miterlimit:10;" x1="362.873" y1="287.332" x2="362.873" y2="324.662"/>
					
						<line style="fill:#2C2752;stroke:#004172;stroke-width:1.9525;stroke-miterlimit:10;" x1="353.467" y1="287.332" x2="353.467" y2="312.033"/>
					
						<line style="fill:#2C2752;stroke:#004172;stroke-width:1.9525;stroke-miterlimit:10;" x1="344.061" y1="287.332" x2="344.061" y2="295.943"/>
					
						<line style="fill:#2C2752;stroke:#004172;stroke-width:1.9525;stroke-miterlimit:10;" x1="334.655" y1="287.332" x2="334.655" y2="303.257"/>
					
						<line style="fill:#2C2752;stroke:#004172;stroke-width:1.9525;stroke-miterlimit:10;" x1="325.249" y1="287.332" x2="325.249" y2="310.57"/>
					
						<line style="fill:#2C2752;stroke:#004172;stroke-width:1.9525;stroke-miterlimit:10;" x1="315.842" y1="287.332" x2="315.842" y2="318.249"/>
					
						<line style="fill:#2C2752;stroke:#004172;stroke-width:1.9525;stroke-miterlimit:10;" x1="306.436" y1="287.332" x2="306.436" y2="309.107"/>
					
						<line style="fill:#2C2752;stroke:#004172;stroke-width:1.9525;stroke-miterlimit:10;" x1="297.03" y1="287.332" x2="297.03" y2="301.428"/>
					
						<line style="fill:#2C2752;stroke:#004172;stroke-width:1.9525;stroke-miterlimit:10;" x1="278.218" y1="287.332" x2="278.218" y2="297.223"/>
					
						<line style="fill:#2C2752;stroke:#004172;stroke-width:1.9525;stroke-miterlimit:10;" x1="268.812" y1="287.332" x2="268.812" y2="303.805"/>
					
						<line style="fill:#2C2752;stroke:#004172;stroke-width:1.9525;stroke-miterlimit:10;" x1="259.406" y1="287.332" x2="259.406" y2="298.22"/>
					
						<line style="fill:#2C2752;stroke:#004172;stroke-width:1.9525;stroke-miterlimit:10;" x1="250" y1="287.332" x2="250" y2="305.085"/>
				</g>
			</g>
			<g>
				
					<line style="fill:#2C2752;stroke:#004172;stroke-width:1.9525;stroke-miterlimit:10;" x1="90.951" y1="287.332" x2="90.951" y2="293.201"/>
				<g>
					
						<line style="fill:#2C2752;stroke:#004172;stroke-width:1.9525;stroke-miterlimit:10;" x1="15.702" y1="287.332" x2="15.702" y2="324.662"/>
					
						<line style="fill:#2C2752;stroke:#004172;stroke-width:1.9525;stroke-miterlimit:10;" x1="25.108" y1="287.332" x2="25.108" y2="312.033"/>
					
						<line style="fill:#2C2752;stroke:#004172;stroke-width:1.9525;stroke-miterlimit:10;" x1="34.514" y1="287.332" x2="34.514" y2="295.943"/>
					
						<line style="fill:#2C2752;stroke:#004172;stroke-width:1.9525;stroke-miterlimit:10;" x1="43.92" y1="287.332" x2="43.92" y2="303.257"/>
					
						<line style="fill:#2C2752;stroke:#004172;stroke-width:1.9525;stroke-miterlimit:10;" x1="53.327" y1="287.332" x2="53.327" y2="310.57"/>
					
						<line style="fill:#2C2752;stroke:#004172;stroke-width:1.9525;stroke-miterlimit:10;" x1="62.733" y1="287.332" x2="62.733" y2="318.249"/>
					
						<line style="fill:#2C2752;stroke:#004172;stroke-width:1.9525;stroke-miterlimit:10;" x1="72.139" y1="287.332" x2="72.139" y2="309.107"/>
					
						<line style="fill:#2C2752;stroke:#004172;stroke-width:1.9525;stroke-miterlimit:10;" x1="81.545" y1="287.332" x2="81.545" y2="301.428"/>
					
						<line style="fill:#2C2752;stroke:#004172;stroke-width:1.9525;stroke-miterlimit:10;" x1="100.357" y1="287.332" x2="100.357" y2="297.223"/>
					
						<line style="fill:#2C2752;stroke:#004172;stroke-width:1.9525;stroke-miterlimit:10;" x1="109.763" y1="287.332" x2="109.763" y2="303.805"/>
					
						<line style="fill:#2C2752;stroke:#004172;stroke-width:1.9525;stroke-miterlimit:10;" x1="119.169" y1="287.332" x2="119.169" y2="298.22"/>
					
						<line style="fill:#2C2752;stroke:#004172;stroke-width:1.9525;stroke-miterlimit:10;" x1="128.575" y1="287.332" x2="128.575" y2="305.085"/>
				</g>
				
					<line style="fill:#2C2752;stroke:#004172;stroke-width:1.9525;stroke-miterlimit:10;" x1="212.376" y1="287.332" x2="212.376" y2="293.201"/>
				<g>
					
						<line style="fill:#2C2752;stroke:#004172;stroke-width:1.9525;stroke-miterlimit:10;" x1="137.127" y1="287.332" x2="137.127" y2="324.662"/>
					
						<line style="fill:#2C2752;stroke:#004172;stroke-width:1.9525;stroke-miterlimit:10;" x1="146.533" y1="287.332" x2="146.533" y2="312.033"/>
					
						<line style="fill:#2C2752;stroke:#004172;stroke-width:1.9525;stroke-miterlimit:10;" x1="155.939" y1="287.332" x2="155.939" y2="295.943"/>
					
						<line style="fill:#2C2752;stroke:#004172;stroke-width:1.9525;stroke-miterlimit:10;" x1="165.345" y1="287.332" x2="165.345" y2="303.257"/>
					
						<line style="fill:#2C2752;stroke:#004172;stroke-width:1.9525;stroke-miterlimit:10;" x1="174.751" y1="287.332" x2="174.751" y2="310.57"/>
					
						<line style="fill:#2C2752;stroke:#004172;stroke-width:1.9525;stroke-miterlimit:10;" x1="184.157" y1="287.332" x2="184.157" y2="318.249"/>
					
						<line style="fill:#2C2752;stroke:#004172;stroke-width:1.9525;stroke-miterlimit:10;" x1="193.563" y1="287.332" x2="193.563" y2="309.107"/>
					
						<line style="fill:#2C2752;stroke:#004172;stroke-width:1.9525;stroke-miterlimit:10;" x1="202.969" y1="287.332" x2="202.969" y2="301.428"/>
					
						<line style="fill:#2C2752;stroke:#004172;stroke-width:1.9525;stroke-miterlimit:10;" x1="221.782" y1="287.332" x2="221.782" y2="297.223"/>
					
						<line style="fill:#2C2752;stroke:#004172;stroke-width:1.9525;stroke-miterlimit:10;" x1="231.188" y1="287.332" x2="231.188" y2="303.805"/>
					
						<line style="fill:#2C2752;stroke:#004172;stroke-width:1.9525;stroke-miterlimit:10;" x1="240.594" y1="287.332" x2="240.594" y2="298.22"/>
				</g>
			</g>
		</g>
	</g>
	<g>
		
			<text transform="matrix(0.9321 -0.3621 0.3621 0.9321 117.0898 135.9715)" style="fill:#2C2752; font-family:'Montserrat-Bold'; font-size:47.8044px;">A</text>
		
			<text transform="matrix(0.9321 -0.3621 0.3621 0.9321 226.1859 170.5949)" style="fill:#2C2752; font-family:'Montserrat-Bold'; font-size:21.41px;">a</text>
		
			<text transform="matrix(0.9959 -0.0902 0.0902 0.9959 339.6286 170.2503)" style="fill:#2C2752; font-family:'Montserrat-Bold'; font-size:47.8044px;">B</text>
		<g>
			
				<text transform="matrix(0.8898 0.4563 -0.4563 0.8898 184.6898 83.347)" style="fill:#2C2752; font-family:'Montserrat-Bold'; font-size:47.8044px;">E</text>
		</g>
		<g>
			<text transform="matrix(1 0 0 1 377.7397 108.9749)" style="fill:#2C2752; font-family:'Montserrat-Bold'; font-size:21.41px;">b</text>
		</g>
		<g>
			<text transform="matrix(1 0 0 1 155.7625 88.6008)" style="fill:#2C2752; font-family:'Montserrat-Bold'; font-size:21.41px;">c</text>
		</g>
		<g>
			<text transform="matrix(1 0 0 1 287.2386 127.6443)" style="fill:#2C2752; font-family:'Montserrat-Bold'; font-size:21.41px;">x</text>
		</g>
		<g>
			
				<text transform="matrix(1 0 0 1 250.4104 178.7287)" style="fill:#2C2752; font-family:'Montserrat-Bold'; font-size:47.8044px;">L</text>
		</g>
	</g>
	<g>
		<path style="opacity:0.17;fill:#2B2D55;" d="M198.733,469.164c0,3.882-32.361,7.029-72.279,7.029
			c-39.919,0-72.279-3.147-72.279-7.029s32.361-7.029,72.279-7.029C166.372,462.136,198.733,465.283,198.733,469.164z"/>
		<g>
			<g>
				<g>
					<g>
						<g>
							<path style="fill:#F6A18A;" d="M204.203,209.078c0,0-13.974,46.783-21.899,44.382l-21.569-17.069l8.676-16.311l13.294,10.061
								c0.288,0.467,12.93-26.666,12.93-26.666s-1.186-13.002,0.494-13.842c1.648-0.824,1.318,7.086,2.307,7.58
								c0.989,0.494,4.614-17.797,6.592-16.808c1.063,0.531-2.472,11.041-1.318,11.865c0.6,0.428,5.977-8.557,6.921-8.734
								c2.637-0.494-5.768,10.382-4.944,10.382c0.824,0,6.427-9.228,7.415-7.58c0.611,1.019-5.108,8.569-4.614,9.228
								c0.494,0.659,3.296-4.285,4.944-4.449c1.648-0.165-3.625,6.921-3.79,7.745C209.476,199.685,207.334,205.453,204.203,209.078z
								"/>
							<g>
								<path style="fill:none;stroke:#E36F59;stroke-width:0.5218;stroke-linecap:round;stroke-miterlimit:10;" d="
									M199.718,198.565c0,0,2.313-0.463,2.313,3.355"/>
								<path style="fill:none;stroke:#E36F59;stroke-width:0.5218;stroke-linecap:round;stroke-miterlimit:10;" d="
									M208.487,195.566c0,0-3.911-2.784-6.687-3.363"/>
							</g>
						</g>
						<path style="fill:#434481;" d="M144.436,198.497c0,0,13.368,8.306,17.928,12.959c2.041,2.083,6.424,5.771,10.644,9.211
							c-1.372,7.612-3.342,15.211-4.794,22.607l-0.139,0.707C152.956,232.031,133.705,212.757,144.436,198.497z"/>
					</g>
					<g>
						<path style="fill:#BB3F72;" d="M165.072,179.71c0.996-1.975-1.191-10.526-3.644-13.592c-4.209-5.261-11.982-7.604-20.01-4.334
							c0,0-6.756,2.142-9.393,6.262c-1.669,2.608-2.142,6.262-3.625,8.569c-1.483,2.307-5.44,2.179-4.451,5.639
							c0.989,3.461,4.537,4.513,1.735,7.808c-2.801,3.296-6.62,2.986-7.114,6.941l27.069,0.174"/>
						
							<ellipse transform="matrix(0.9246 -0.3809 0.3809 0.9246 -53.9548 62.3043)" style="fill:#BB3F72;" cx="130.444" cy="167.477" rx="7.823" ry="7.823"/>
						<path style="fill:#F6A18A;" d="M148.473,175.892c-1.143-0.984-5.127,4.624-6.182,3.547c-0.028-0.029-0.053-0.048-0.073-0.055
							c-1.15-0.417-3.72-1.611-5.171,1.267c-1.543,3.059,1.067,5.942,2.793,6.474c0.836,0.257,1.853,1.162,2.207,1.962
							c1.898,4.288-0.824,12.875-1.121,16.202c-0.67,7.51-6.763-0.727-6.763-0.727s20.323,15.984,23.325,7.052
							c-2.453-4.292-3.98-17.805-1.827-16.999c2.825,1.057,8.766-2.502,9.489-15.362c-1.208-3.504-2.527-5.923-3.716-7.618
							c-1.205-1.719-2.355-3.593-3.127-1.641C156.856,173.659,153.447,180.173,148.473,175.892z"/>
						<g>
							<path style="fill:#E36F59;" d="M138.042,181.992c0,0,3.174-3.172,3.643,2.765"/>
							<path style="fill:#FF8169;" d="M152.884,182.643c1.505,0.5,2.321,2.125,1.821,3.631c-0.5,1.505-2.125,2.321-3.631,1.821
								c-1.505-0.5-2.321-2.125-1.821-3.631C149.753,182.958,151.379,182.143,152.884,182.643z"/>
							<path style="fill:#FF8169;" d="M163.504,187.793c-1.158-0.667-1.727-2.076-1.29-3.393c0.337-1.016,1.533-1.545,2.512-1.74
								C164.725,182.66,164.466,185.893,163.504,187.793z"/>
							<path style="fill:#E36F59;" d="M160.04,181.214l-0.512,3.312l1.659-0.121c0.306-0.023,0.476-0.364,0.195-0.853
								L160.04,181.214z"/>
							<path d="M155.378,177.141c-0.536,0.372,0.294-1.298,1.025-1.489c0.731-0.191,1.458,0.166,1.623,0.797
								C158.026,176.449,156.666,176.247,155.378,177.141z"/>
							<path d="M163.858,178.19c0.532,0.378-0.281-1.301-1.01-1.499c-0.729-0.199-1.459,0.151-1.631,0.781
								C161.218,177.472,162.58,177.284,163.858,178.19z"/>
							<path d="M156.635,181.37c0.023,0.564,0.263,1.012,0.537,1.001c0.273-0.011,0.477-0.477,0.454-1.041
								c-0.023-0.564-0.263-1.012-0.537-1.001C156.816,180.34,156.613,180.806,156.635,181.37z"/>
							<path d="M161.105,180.916c0.022,0.539,0.251,0.967,0.512,0.956c0.261-0.011,0.455-0.456,0.434-0.995
								c-0.022-0.538-0.251-0.966-0.513-0.956C161.277,179.932,161.082,180.377,161.105,180.916z"/>
							<path style="fill:#1E2046;" d="M155.419,194.581c0,0-3.981-1.409-6.516-2.503
								C146.369,190.984,152.644,201.42,155.419,194.581z"/>
							<path style="fill:#FEF2FB;" d="M162.065,185.262l-5.148-0.116c0,0,1.586,3.404,3.066,3.065
								C162.007,187.749,162.065,185.262,162.065,185.262z"/>
						</g>
					</g>
					<g>
						<path style="fill:#F6A18A;" d="M149.797,442.282l0.527,17.859c0,0,7.888,8.824,10.845,5.205
							c2.956-3.619,2.637-8.77,2.637-8.77l0.971-14.656L149.797,442.282z"/>
						<path style="fill:#F6A18A;" d="M102.681,441.2l-4.386,14.062c0,0-3.338,2.927-4.544,2.852c-2.192-0.138-3.342-3.92-3.342-3.92
							L90.048,441.2H102.681z"/>
						<path style="fill:#434481;" d="M164.779,456.504l16.083,12.226c0.604,0.449-32.795,0.521-32.795,0.521l2.256-11.279
							c0,0,8.233,5.725,10.237,5.032c1.343-0.465,2.228-5.986,2.771-6.465C163.699,456.216,164.376,456.205,164.779,456.504z"/>
						<path style="fill:#434481;" d="M90.246,453.706l-13.06,15.458h29.671l-8.226-14.708c-0.02-0.139-0.266-0.191-0.387-0.081
							l-2.567,2.327c-0.841,0.762-3.123,0.66-3.69-0.253c-0.405-0.651-1.353-2.752-1.353-2.752
							C90.548,453.585,90.322,453.59,90.246,453.706z"/>
					</g>
					<g>
						<path style="fill:#4B97C6;" d="M130.048,252.747c-5.412,9.569-12.518,19.791-15.628,31.957
							c-3.607,14.108-43.601,133.982-45.302,159.644c4.446,1.072,30.477,0.379,33.286,0.223
							c8.938-25.611,35.948-119.415,39.78-135.55c0.589-2.48,4.421-1.936,4.122,0.596c-2.175,18.425-11.675,86.443-11.675,136.977
							c2.332,1.187,27.508,0.338,30.201,0c2.929-31.602,19.137-152.63-4.326-191.41
							C149.776,253.704,140.927,252.423,130.048,252.747z"/>
						<path style="opacity:0.5;fill:#5BC29C;" d="M114.134,285.769c0.11-0.396,0.209-0.764,0.286-1.065
							c3.11-12.165,10.216-22.388,15.628-31.957c10.864-0.324,19.704,0.953,30.413,2.43
							C145.108,265.508,129.614,275.629,114.134,285.769z"/>
						<path style="fill:none;stroke:#FFFFFF;stroke-width:0.4182;stroke-miterlimit:10;" d="M157.732,256.702
							c0,0,10.929,26.333,10.929,59.712c0,33.379-8.187,130.453-8.187,130.453"/>
						
							<line style="fill:none;stroke:#FFFFFF;stroke-width:0.4182;stroke-miterlimit:10;" x1="77.447" y1="444.348" x2="131.094" y2="258.296"/>
					</g>
					<g>
						<path style="fill:#434481;" d="M155.237,203.438c1.053,0.842,11.368,25.313,10.996,32.742
							c-0.375,7.484-4.051,21.759-4.051,21.759s-4.548,4.55-36.583-0.494c-7.91-17.056-6.427-43.01,4.12-53.638
							c0,0,7.852-1.77,11.496-2.984c0,0,6.539,7.517,10.498,7.461C153.511,208.257,155.442,206.095,155.237,203.438z"/>
					</g>
					<g style="opacity:0.5;">
						<path style="fill:#3F468E;" d="M138.051,201.752c5.6,4.061,8.433,13.826,10.189,19.962c2.354,8.229,3.38,16.704,4.154,25.204
							c0.605,6.645,11.045,6.686,10.436,0c-0.967-10.62-2.207-21.362-5.625-31.515c-0.902-2.679-1.929-5.544-3.166-8.357
							c0.783-0.888,1.309-2.168,1.199-3.609c1.053,0.842,11.368,25.313,10.996,32.742c-0.375,7.484-4.051,21.759-4.051,21.759
							s-0.911,0.902-4.744,1.457c-9.58-18.223-19.179-36.483-25.781-56.039C133.333,202.961,135.823,202.357,138.051,201.752z"/>
						<path style="fill:#3F468E;" d="M124.026,212.927c6.041,16.133,13.824,31.508,21.804,46.772
							c-5.075-0.247-11.662-0.906-20.231-2.255C119.451,244.188,118.98,225.561,124.026,212.927z"/>
					</g>
					<g>
						<path style="fill:#4B97C6;" d="M136.724,224.921c8.837-0.473,17.653-1.162,26.424-2.285
							c1.838,5.485,3.227,10.733,3.086,13.543c-0.375,7.484-2.722,26.24-2.722,26.24s-10.99,2.096-31.58,0
							C136.789,247.844,138.899,236.221,136.724,224.921z"/>
					</g>
					<g>
						<path style="opacity:0.5;fill:#5BC29C;" d="M160.342,230.289c-1.471-0.263-2.14-0.827-2.789-2.16
							c-0.684-1.404-1.041-3.028-1.277-4.701c2.293-0.238,4.584-0.498,6.871-0.791c0.702,2.094,1.336,4.151,1.846,6.053
							C163.535,229.642,162.507,230.676,160.342,230.289z"/>
						<path style="opacity:0.5;fill:#5BC29C;" d="M142.658,224.555c1.29,2.501,1.777,5.078-0.654,6.591
							c-0.276,0.057-0.549,0.101-0.818,0.116c-1.666,0.097-2.815-0.911-3.847-2.104c-0.141-1.421-0.345-2.831-0.615-4.237
							C138.703,224.815,140.681,224.689,142.658,224.555z"/>
					</g>
					<g>
						<g>
							<path style="fill:#F6A18A;" d="M155.182,266.352c0,0-50.947,2.249-50.806-6.031l6.039-28.094l20.095,0.629l-4.022,16.442
								c-0.37,0.405,36.078,9.664,36.078,9.664s12.41,14.818,12.187,14.786c0,0,1.252,2.089-0.136,1.742
								c-1.388-0.347-8.791-7.75-8.791-7.75s6.941,8.444,5.552,8.676c-1.388,0.231-2.776-1.388-2.776-1.388s1.735,1.62,0.81,1.735
								c-0.925,0.116-3.586-2.314-3.586-2.314s0.578,1.851,0.116,1.966C165.477,276.532,155.182,266.352,155.182,266.352z"/>
						</g>
						<path style="fill:#434481;" d="M130.352,235.424c-7.635-0.29-15.266-0.645-22.898-0.99
							c2.748-14.884,9.755-36.179,27.055-29.51c0,0,5.038,6.946,1.811,12.605C134.702,220.365,132.323,228.256,130.352,235.424z"/>
					</g>
					<g>
						<path style="fill:none;stroke:#E36F59;stroke-width:0.4883;stroke-linecap:round;stroke-miterlimit:10;" d="M169.248,275.664
							c0,0-4.709-4.872-5.575-6.333"/>
						<path style="fill:none;stroke:#E36F59;stroke-width:0.4883;stroke-linecap:round;stroke-miterlimit:10;" d="M166.162,274.743
							c0,0-3.248-3.789-3.897-4.384"/>
					</g>
					<path style="fill:#F6A18A;" d="M162.279,258.732c0,0,11.792,5.413,10.477,6.259c-0.98,0.63-5.237,0.042-5.237,0.042
						L162.279,258.732z"/>
					<g>
						<path style="fill:#4B97C6;" d="M157.727,206.2c0,0,3.552,3.836,6.241,21.07c0.278,1.783-1.053,3.423-2.855,3.523l0,0
							c-1.615,0.09-3.024-1.093-3.206-2.7c-0.516-4.565-1.569-18.248-2.725-24.842C156.339,204.06,157.727,206.2,157.727,206.2z"/>
						<path style="fill:#FFF8ED;" d="M159.028,226.617c0-1.086,0.88-1.967,1.967-1.967c1.086,0,1.966,0.881,1.966,1.967
							c0,1.086-0.88,1.967-1.966,1.967C159.909,228.584,159.028,227.703,159.028,226.617z"/>
					</g>
					<g>
						<g>
							<path style="fill:#4B97C6;" d="M130.976,203.25l5.553-1.215c0,0,5.547,8,8.236,25.234c0.278,1.783-1.053,3.423-2.855,3.523
								l0,0c-1.615,0.09-3.024-1.093-3.206-2.7C138.017,222.005,135.905,208.537,130.976,203.25z"/>
						</g>
						<path style="fill:#FFF8ED;" d="M140.008,227.366c0-1.086,0.88-1.966,1.966-1.966c1.086,0,1.967,0.88,1.967,1.966
							c0,1.086-0.88,1.967-1.967,1.967C140.888,229.333,140.008,228.452,140.008,227.366z"/>
					</g>
				</g>
			</g>
			<g>
				<path style="fill:#97C5DF;" d="M208.445,152.862h-20.251l-10.126,17.72v-35.439c0-9.786,7.933-17.72,17.72-17.72h12.657
					c9.786,0,17.72,7.933,17.72,17.72l0,0C226.165,144.928,218.231,152.862,208.445,152.862z"/>
				<g>
					<path style="fill:#2B2D55;" d="M210.08,136.091c0-1.383,1.122-2.505,2.505-2.505c1.383,0,2.505,1.121,2.505,2.505
						c0,1.384-1.122,2.505-2.505,2.505C211.201,138.596,210.08,137.475,210.08,136.091z"/>
					<path style="fill:#2B2D55;" d="M200.292,136.091c0-1.383,1.122-2.505,2.505-2.505c1.383,0,2.505,1.121,2.505,2.505
						c0,1.384-1.121,2.505-2.505,2.505C201.413,138.596,200.292,137.475,200.292,136.091z"/>
					<path style="fill:#2B2D55;" d="M190.435,136.091c0-1.383,1.121-2.505,2.505-2.505c1.383,0,2.505,1.121,2.505,2.505
						c0,1.384-1.122,2.505-2.505,2.505C191.557,138.596,190.435,137.475,190.435,136.091z"/>
				</g>
			</g>
		</g>
	</g>
	<g>
		<ellipse style="opacity:0.17;fill:#2B2D55;" cx="333.01" cy="464.873" rx="108.614" ry="11.32"/>
		<g>
			<g>
				<g>
					<g>
						<g>
							
								<rect x="380.004" y="404.96" transform="matrix(-1 -1.224647e-16 1.224647e-16 -1 767.0674 843.8528)" style="fill:#2B2D55;" width="7.059" height="33.933"/>
						</g>
						<g>
							<path style="fill:#2B2D55;" d="M344.917,398.913h36.097v-8.335h-41.197v3.235
								C339.818,396.63,342.101,398.913,344.917,398.913z"/>
						</g>
						<g>
							<path style="fill:#434481;" d="M374.134,398.913h32.557c3.425,0,6.202-2.777,6.202-6.202v-2.133h-47.094l0,0
								C365.799,395.182,369.53,398.913,374.134,398.913z"/>
						</g>
						<g>
							
								<rect x="377.722" y="437.49" transform="matrix(-1 -1.224647e-16 1.224647e-16 -1 767.0675 888.8371)" style="fill:#2B2D55;" width="11.624" height="13.858"/>
						</g>
						<g>
							
								<rect x="377.722" y="393.194" transform="matrix(-1 -1.224647e-16 1.224647e-16 -1 767.0675 800.2454)" style="fill:#434481;" width="11.624" height="13.858"/>
						</g>
					</g>
					<g>
						<g>
							<path style="fill:#434481;" d="M291.68,390.805h117.771v-14.721H298.607c-3.826,0-6.927,3.101-6.927,6.927V390.805z"/>
						</g>
						<g>
							<path style="fill:#2B2D55;" d="M438.537,379.494l8.832-111.088c0.12-1.512-1.074-2.805-2.591-2.805h-61.03
								c-1.356,0-2.484,1.042-2.591,2.393L371.615,388c-0.12,1.512,1.074,2.806,2.591,2.806h52.085
								C432.698,390.805,438.029,385.881,438.537,379.494z"/>
						</g>
						<g>
							<g>
								<polygon style="fill:#6D70DA;" points="366.33,250.881 432.282,250.881 432.282,280.324 363.019,280.324 								"/>
							</g>
							<g>
								
									<ellipse transform="matrix(0.7071 -0.7071 0.7071 0.7071 -80.341 337.2441)" style="fill:#004172;" cx="366.919" cy="265.602" rx="14.721" ry="14.721"/>
							</g>
						</g>
						<g>
							<polygon style="fill:#434481;" points="422.916,383.963 432.871,265.601 366.625,265.601 356.67,383.963 							"/>
						</g>
						<g>
							
								<ellipse transform="matrix(0.9952 -0.0983 0.0983 0.9952 -24.0017 43.8158)" style="fill:#2B2D55;" cx="432.871" cy="265.602" rx="14.721" ry="14.721"/>
						</g>
						<g>
							<path style="fill:#2B2D55;" d="M364.1,390.805h59.291c5.955,0,10.783-4.828,10.783-10.783v-3.938h-63.147
								c-3.826,0-6.927,3.101-6.927,6.927V390.805z"/>
						</g>
					</g>
				</g>
				<path style="fill:#2B2D55;" d="M424.733,462.263h-82.399v-2.118c0-5.411,4.386-9.797,9.797-9.797h62.805
					c5.411,0,9.797,4.386,9.797,9.797V462.263z"/>
			</g>
			<g>
				<g>
					<g>
						<path style="fill:#97C5DF;" d="M308.459,219.287h18.494l9.247,16.182v-32.364c0-8.937-7.245-16.182-16.182-16.182h-11.559
							c-8.937,0-16.182,7.245-16.182,16.182l0,0C292.277,212.042,299.522,219.287,308.459,219.287z"/>
						<g>
							<path style="fill:#2B2D55;" d="M306.966,203.972c0-1.263-1.024-2.288-2.288-2.288s-2.288,1.024-2.288,2.288
								c0,1.263,1.024,2.288,2.288,2.288S306.966,205.236,306.966,203.972z"/>
							<path style="fill:#2B2D55;" d="M315.905,203.972c0-1.263-1.024-2.288-2.288-2.288s-2.288,1.024-2.288,2.288
								c0,1.263,1.024,2.288,2.288,2.288S315.905,205.236,315.905,203.972z"/>
							<path style="fill:#2B2D55;" d="M324.906,203.972c0-1.263-1.024-2.288-2.288-2.288c-1.263,0-2.288,1.024-2.288,2.288
								c0,1.263,1.024,2.288,2.288,2.288C323.882,206.26,324.906,205.236,324.906,203.972z"/>
						</g>
					</g>
				</g>
				<g>
					<g>
						<g>
							<path style="fill:#1E2046;" d="M267.061,437.307l6.977,4.564l-3.118,4.333C269.67,443.221,268.393,440.252,267.061,437.307z"
								/>
							<g>
								<path style="fill:#BB3F72;" d="M269.406,448.688c0,0-5.971,16.016-7.68,15.27l-38.885-20.305c0,0,6.392-5.528,14.533-2.824
									c12.291,4.083,14.137-1.626,14.137-1.626l0.739,1.98c2.486,6.664,9.86,10.099,16.561,7.716L269.406,448.688z"/>
							</g>
							<g>
								<g>
									<path style="fill:#FFF8ED;" d="M247.826,441.518c0.865,1.424,1.431,3.018,1.621,4.675c0.089,0.777,0.142,1.617,0.012,2.392
										c-0.089,0.528-0.314,1.282-0.935,1.375c-0.682,0.101-1.153-0.696-1.42-1.203c-0.4-0.758-0.742-1.553-1.093-2.335
										c-0.755-1.68-1.457-3.382-2.112-5.104c-0.159-0.417-0.836-0.236-0.675,0.186c0.594,1.563,1.227,3.11,1.901,4.64
										c0.337,0.764,0.684,1.524,1.041,2.279c0.281,0.595,0.562,1.211,1.036,1.683c0.797,0.794,1.986,0.713,2.568-0.281
										c0.647-1.106,0.508-2.653,0.349-3.864c-0.223-1.7-0.798-3.33-1.688-4.795C248.197,440.78,247.591,441.132,247.826,441.518
										L247.826,441.518z"/>
								</g>
							</g>
						</g>
						<g>
							<path style="fill:#3882A8;" d="M315.537,379.129c-1.939-0.308-40.364,63.296-40.364,63.296s-18.188-11.538-18.249-11.766
								c0,0,14.125-55.162,32.657-84.283c3.362-5.283,10.886-6.403,13.767-6.403c22.039,0,36.179,7.604,49.145,9.285l-7.444,23.772"
								/>
							<path style="fill:none;stroke:#FFFFFF;stroke-width:0.3708;stroke-miterlimit:10;" d="M342.648,361.263
								c-42.502-5.523-43.342,2.604-47.304,11.766l-32.417,61.712"/>
						</g>
					</g>
					<g>
						<g>
							<polygon style="fill:#FF937E;" points="304.79,448.44 305.668,437.12 322.804,438.667 323.354,448.914 314.708,458.822 
															"/>
							<path style="fill:#F2B490;" d="M251.977,440.922l7.662-8.47l14.398,9.42l-5.898,8.195l0,0
								c-6.599,2.514-13.932-1.182-15.837-7.982L251.977,440.922z"/>
							<polygon style="fill:#F2B490;" points="304.79,448.44 305.668,437.12 322.804,438.667 323.354,448.914 314.708,458.822 
															"/>
							<g>
								<path style="fill:#BB3F72;" d="M323.824,447.103c0,0,2.258,16.943,0.399,17.088l-43.866,0.355c0,0,3.043-7.884,11.5-9.324
									c12.767-2.174,11.713-8.08,11.713-8.08l1.11,0.982C310.27,453.07,318.794,452.615,323.824,447.103L323.824,447.103z"/>
							</g>
							<g>
								<g>
									<path style="fill:#FFF8ED;" d="M302.167,451.831c1.697,0.711,3.05,2.219,3.566,3.985c0.116,0.396,0.242,0.949-0.239,1.138
										c-0.399,0.157-0.929,0.123-1.341,0.049c-0.908-0.163-1.72-0.655-2.416-1.245c-0.834-0.708-1.545-1.552-2.212-2.415
										c-0.272-0.352-0.88-0.003-0.605,0.354c1.315,1.705,2.967,3.694,5.238,4.012c0.987,0.138,2.381-0.014,2.383-1.294
										c0.001-0.544-0.213-1.093-0.426-1.585c-0.222-0.514-0.508-0.993-0.848-1.438c-0.762-0.996-1.759-1.754-2.914-2.238
										C301.938,450.982,301.757,451.659,302.167,451.831L302.167,451.831z"/>
								</g>
							</g>
						</g>
						<g>
							<path style="fill:#4B97C6;" d="M394.64,344.787v0.003c0,17.217-13.825,31.174-30.879,31.174h-33.624
								c-1.963,0-3.394,1.878-2.889,3.794l-2.726,62.352c0.101,0.383-0.185,0.759-0.578,0.759h-11.691
								c-0.236,0-7.094,0.514-7.19,0.297l-9.11-79.729c-3.485-7.895,7.159-21.22,15.719-21.383L394.64,344.787z"/>
							<path style="fill:none;stroke:#FFFFFF;stroke-width:0.3708;stroke-miterlimit:10;" d="M375.121,345.684
								c0,0,3.039,18.843-14.588,18.235c-9.797-0.338-25.603-0.112-37.712,0.155c-8.605,0.19-14.703,8.471-12.338,16.747
								l4.406,61.558"/>
						</g>
					</g>
				</g>
				<g>
					<g>
						<path style="fill:#F2B490;" d="M270.888,264.881l6.713,11.294l10.206,19.947l14.275-13.889l-14.571-16.181
							c0,0-1.385-2.451-2.078-3.39c-5.479-7.43-11.886-18.489-12.376-16.281c-0.348,1.568,3.799,10.294,3.799,10.294
							s-4.688-10.655-6.286-10.122c-1.598,0.533,3.516,10.868,3.516,10.868s-5.221-8.524-6.393-7.991
							c-1.172,0.533,3.836,10.016,3.836,10.016s-3.729-6.5-5.008-5.647C265.241,254.652,270.888,264.881,270.888,264.881z"/>
						<path style="fill:#F2B490;" d="M286.551,264.775c0,0,2.344-11.614,0.852-12.36c-1.492-0.746-4.155,7.565-4.155,7.565
							L286.551,264.775z"/>
						<g>
							<path style="fill:none;stroke:#FF9A47;stroke-width:0.4806;stroke-linecap:round;stroke-miterlimit:10;" d="M282.289,260.939
								c0,0-2.238,1.705-2.451,4.795"/>
							
								<line style="fill:none;stroke:#FF9A47;stroke-width:0.4806;stroke-linecap:round;stroke-miterlimit:10;" x1="277.708" y1="253.374" x2="270.462" y2="260.406"/>
							
								<line style="fill:none;stroke:#FF9A47;stroke-width:0.4806;stroke-linecap:round;stroke-miterlimit:10;" x1="275.257" y1="252.947" x2="276.109" y2="254.759"/>
						</g>
					</g>
					<path style="fill:#FFFFFF;" d="M333.644,343.364c0,0,11.426-78.765,14.342-83.669c0,0-6.76-3.579-15.773,15.375
						c-9.013,18.954-10.289,24.441-10.289,24.441l-19.843-20.363l-16.204,16.975l34.951,39.886c1.43,1.631,3.378,2.72,5.516,3.082
						l6.139,1.04"/>
					<g>
						<path style="fill:#BB3F72;" d="M384.152,256.57c0,0,15.341,4.841,18.02,25.663c2.679,20.823-9.523,74.24-9.523,74.24
							s-12.98-5.506-18.336-6.976c-7.918-2.173-13.842-2.29-19.488-2.389l-23.462-4.575l8.369-66.449
							c1.237-5.314,1.898-12.949,6.736-15.996l8.168-4.941l16.763-4.936L384.152,256.57z"/>
					</g>
					<g>
						<defs>
							<path id="SVGID_1_" d="M285.878,296.123l34.951,39.886c1.43,1.632,3.378,2.72,5.516,3.083l5.338,0.905l-0.319,2.537
								l2.132,0.416l0.149,0.415c0,0,0.02-0.137,0.055-0.375l21.126,4.12c5.646,0.099,11.57,0.216,19.488,2.389
								c5.356,1.47,18.336,6.976,18.336,6.976s0.94-4.118,2.241-10.507l2.04,5.008l23.699-9.508
								c13.24-6.872,19.078-17.996,14.773-27.85c-14.917-34.143-35.136-52.852-49.823-56.465c-0.89-0.412-1.427-0.581-1.427-0.581
								l-12.753-6.358l-16.763,4.936l-7.218,4.366c-1.799-0.384-7.724-0.176-15.204,15.556
								c-9.013,18.954-10.289,24.441-10.289,24.441l-19.843-20.363L285.878,296.123z M398.478,326.787
								c0.364-2.15,0.722-4.345,1.065-6.561l3.06,4.955L398.478,326.787z"/>
						</defs>
						<clipPath id="SVGID_00000077298839644046219100000014793621566745335696_">
							<use xlink:href="#SVGID_1_"  style="overflow:visible;"/>
						</clipPath>
						<g style="clip-path:url(#SVGID_00000077298839644046219100000014793621566745335696_);">
							<g>
								<g>
									<path style="fill:#FFF8ED;" d="M386.106,256.271c2.56,9.794-4.988,19.616-12.755,24.699
										c-4.06,2.657-8.799,4.279-13.69,3.973c-5.191-0.325-9.657-2.794-12.706-6.994c-3.591-4.947-6.154-10.8-8.018-16.593
										c-0.138-0.427-0.814-0.245-0.675,0.186c1.806,5.616,4.271,11.175,7.6,16.063c2.914,4.279,6.99,7.118,12.164,7.868
										c10.145,1.471,19.827-5.247,25.253-13.367c3.135-4.691,4.966-10.422,3.503-16.021
										C386.667,255.649,385.992,255.834,386.106,256.271L386.106,256.271z"/>
								</g>
							</g>
							<g>
								<g>
									<path style="fill:#FFF8ED;" d="M379.957,252.635c-0.843,2.366-2.884,4.276-5.144,5.304c-1.232,0.56-2.578,0.684-3.828,0.11
										c-1.129-0.518-2.031-1.412-2.793-2.373c-0.28-0.353-0.772,0.145-0.495,0.495c0.846,1.068,1.876,2.04,3.146,2.575
										c1.331,0.56,2.731,0.467,4.05-0.083c2.551-1.063,4.808-3.223,5.741-5.842C380.784,252.395,380.108,252.212,379.957,252.635
										L379.957,252.635z"/>
								</g>
							</g>
							<g>
								<g>
									<path style="fill:#FFF8ED;" d="M377.491,355.238c1.205-9.109,0.604-18.507-1.986-27.338
										c-2.071-7.062-5.661-14.02-11.708-18.46c-3.219-2.364-6.885-3.593-10.859-2.654c-3.84,0.907-7.251,3.306-10.105,5.955
										c-5.541,5.142-9.256,12.037-11.38,19.236c-2.449,8.302-3.092,17.849,1.485,25.555c0.23,0.387,0.836,0.035,0.605-0.353
										c-3.992-6.721-3.886-14.934-2.128-22.333c1.666-7.01,4.78-13.819,9.593-19.235c2.468-2.778,5.407-5.287,8.761-6.926
										c4.114-2.01,8.364-2.013,12.293,0.424c6.302,3.909,10.143,10.765,12.361,17.654c2.941,9.135,3.624,18.985,2.368,28.476
										C376.732,355.684,377.433,355.68,377.491,355.238L377.491,355.238z"/>
								</g>
							</g>
							<g>
								<g>
									<path style="fill:#FFF8ED;" d="M340.93,288.602c1.804,0.781,3.168,2.692,2.915,4.71c-0.243,1.936-2.209,3.587-4.177,3.27
										c-0.441-0.071-0.631,0.604-0.186,0.675c2.287,0.369,4.603-1.332,5.016-3.61c0.425-2.349-1.073-4.725-3.213-5.651
										C340.874,287.82,340.517,288.423,340.93,288.602L340.93,288.602z"/>
								</g>
							</g>
							<g>
								<g>
									<path style="fill:#FFF8ED;" d="M354.922,350.916c2.007-1.08,1.265-4.865,0.794-6.615c-0.713-2.648-2.239-5.079-4.269-6.916
										c-2.075-1.877-4.658-3.198-7.505-2.532c-2.726,0.637-5.084,2.629-6.742,4.817c-1.917,2.531-3.006,5.583-3.164,8.749
										c-0.022,0.451,0.678,0.449,0.701,0c0.155-3.116,1.274-6.136,3.216-8.585c1.982-2.499,5.27-5.039,8.659-4.38
										c3.058,0.595,5.678,3.331,7.156,5.943c0.737,1.303,1.265,2.727,1.52,4.204c0.211,1.221,0.617,3.991-0.72,4.71
										C354.171,350.525,354.524,351.13,354.922,350.916L354.922,350.916z"/>
								</g>
							</g>
						</g>
					</g>
					<path style="fill:#FFFFFF;" d="M397.65,263.708c7.071,14.328,6.913,33.172,5.238,49.061
						c-1.498,14.207-1.153,29.757-6.306,43.081c-4.001,10.344-13.39,18.428-24.213,20.847c-6.131,1.371-12.499,1.013-18.771,0.648
						c-7.268-0.423-18.51,0.158-25.778-0.265c-7.959-10.599-10.091-11.968-13.045-24.889c-0.232-1.014-3.704-11.665-2.823-12.22
						c13.649,0.603,28.984,2.546,42.78,5.08c2.336-24.367,8.746-50.508,4.405-74.599c-0.466-2.587,0.958-5.101,2.357-7.326
						c3.361-5.348,6.202-7.799,9.906-12.916C380.972,253.853,389.401,258.621,397.65,263.708z"/>
					<g>
						<path style="fill:none;stroke:#00538D;stroke-width:0.4806;stroke-linecap:round;stroke-miterlimit:10;" d="M371.398,347.824
							l12.135,12.613c0,0-6.681,6.823-14.673,7.03c-7.992,0.207-11.714-8.064-9.646-12.406
							C361.282,350.719,371.398,347.824,371.398,347.824z"/>
						<path style="fill:none;stroke:#00538D;stroke-width:0.4806;stroke-linecap:round;stroke-miterlimit:10;" d="M368.255,349.116
							c1.884,2.09,11.263,11.1,12.717,13.51"/>
					</g>
					<g>
						<path style="fill:#F2B490;" d="M395.375,347.218c-16.302,3.347-27.943,5.686-30.034,6.198
							c-1.575,0.386-6.455,1.054-6.827,0.489c-0.85-1.292,8.892-2.785,8.397-2.911c-0.495-0.126-11.393,2.678-12.106,1.652
							c-1.071-1.544,11.148-4.456,11.351-4.514c3.077-0.89-11.565,3.238-12.555,2.343c-0.989-0.895,5.541-3.236,5.77-3.323
							c0,0,5.723-1.675,5.673-2.116c-0.05-0.441-13.471,0.018-12.9-1.242c0.571-1.26,8.806-2.092,10.973-2.552
							c2.167-0.46,9.943-2.9,8.651-3.238l-5.309-1.322c-0.962-0.24-0.901-1.63,0.078-1.778c2.864-0.434,6.491-0.796,8.466-0.257
							c1.888,0.516,4.066,1.509,4.066,1.509l10.877-3.974L395.375,347.218z"/>
					</g>
					<g>
						<path style="fill:#FFFFFF;" d="M373.844,278.612c0,0-11.974-15.536,1.198-21.076c13.834-5.818,41.388,12.656,60.36,56.08
							c4.305,9.854-1.533,20.978-14.773,27.85l-23.699,9.508l-8.294-20.355l13.967-5.437L373.844,278.612z"/>
					</g>
					<polyline style="fill:none;stroke:#00538D;stroke-width:0.4806;stroke-linecap:round;stroke-miterlimit:10;" points="
						388.636,330.618 402.602,325.181 373.844,278.612 					"/>
					
						<line style="fill:none;stroke:#00538D;stroke-width:0.4806;stroke-linecap:round;stroke-miterlimit:10;" x1="371.702" y1="282.37" x2="378.988" y2="286.941"/>
					<path style="fill:#FFFFFF;" d="M354.085,255.48c-7.155,2.321-11.86,6.563-14.759,13.504s-3.743,14.539-4.557,22.017
						c-1.783,16.376-3.751,33.947-5.534,50.323c1.715,0.496,3.476,0.233,5.192,0.729c1.524-23.103,4.948-47.024,9.694-69.685
						C345.53,265.639,348.891,260.406,354.085,255.48z"/>
					
						<line style="fill:none;stroke:#00538D;stroke-width:0.4806;stroke-linecap:round;stroke-miterlimit:10;" x1="329.421" y1="340.129" x2="336.762" y2="277.322"/>
					<path style="fill:#E2E2E2;" d="M371.398,250.212l1.194,8.578l-9.573,5.985l3.9,6.335c0,0-6.298,20.442-6.338,19.849
						c-0.04-0.593-2.345-20.02-1.425-22.683C360.076,265.613,365.196,254.853,371.398,250.212z"/>
					<path style="fill:#E2E2E2;" d="M354.085,255.48c0,0-9.751,14.548-12.624,30.527l-0.753-14.62l4.336-5.653l-1.105-3.772
						C343.938,261.962,345.194,259.406,354.085,255.48z"/>
					<path style="fill:none;stroke:#00538D;stroke-width:0.4806;stroke-linecap:round;stroke-miterlimit:10;" d="M388.381,330.308
						c2.186,7.245,5.015,14.296,8.442,21.043l6.007-2.744l-8.19-20.326L388.381,330.308z"/>
				</g>
				<g>
					<g>
						<path style="fill:#F2B490;" d="M368.298,235.494l3.1,14.718l-5.659,6.43c-8.806,9.503-10.031,3.215-11.681,2.417l1.134-17.264
							l8.206-3.275L368.298,235.494z"/>
						<path style="fill:#1E2046;" d="M363.399,238.519l-8.206,4.535c0,0-0.882,7.939,1.512,8.191
							c2.003,0.211,8.903-6.214,8.191-11.09"/>
					</g>
					<g>
						<path style="fill:#2C2752;" d="M369.662,232.677c2.401-1.561,3.009-15.358,3.009-15.358s0.133-3.316-4.821-3.475
							c0,0,1.758-2.877-0.639-4.635c-2.397-1.758-4.795,0.959-4.795,0.959s-0.959-2.238-1.918-2.397
							c-0.959-0.16-1.918,1.279-1.918,1.279s-1.119-2.717-3.996-3.197c-2.877-0.479-3.996,3.197-3.996,3.197
							s-1.279-1.438-3.037-0.799c-1.758,0.639-1.119,3.516-1.119,3.516s-4.475,0-1.438,4.795c1.086,1.715,4.608,0.123,4.608,0.123
							s-0.576,6.368,0.818,6.982c1.395,0.614,6.677,1.489,8.932-0.07c2.255-1.559,4.562-4.206,4.562-4.206l3.682,13.692
							c1.387-1.707,0.283,4.395,0.283,4.395"/>
						<path style="fill:#F2B490;" d="M349.626,216.464c-2.751,20.668-1.984,26.807-0.051,28.409
							c2.782,2.305,7.83,0.913,10.286-0.021c4.03-1.533,6.876-5.812,7.76-7.084c0.437-0.628,5.519,0.421,4.833-4.41
							c-0.505-3.56-2.4-2.422-3.362-1.577c-0.281,0.246-0.722,0.127-0.841-0.226c-0.713-2.106-3.026-10.052-3.79-12.598
							c-0.331-1.104-5.167-0.932-5.646-1.002c-4.174-0.608-7.925-0.493-8.996-1.338L349.626,216.464z"/>
						<g>
							<path style="fill:#FF9A47;" d="M371.702,232.966l-2.79,1.872C368.911,234.839,370.13,230.067,371.702,232.966z"/>
							<path style="fill:#012A39;" d="M352.461,229.451c-0.025,0.577,0.188,1.054,0.476,1.067c0.289,0.013,0.543-0.445,0.568-1.021
								c0.025-0.577-0.188-1.054-0.477-1.067C352.741,228.417,352.487,228.874,352.461,229.451z"/>
							<path style="fill:#012A39;" d="M349.085,228.791c-0.025,0.577,0.188,1.055,0.476,1.067c0.288,0.013,0.542-0.445,0.568-1.021
								c0.025-0.577-0.188-1.054-0.476-1.067C349.365,227.757,349.111,228.214,349.085,228.791z"/>
							<path style="fill:#38194B;" d="M357.014,225.734c0.751,0.562-0.355-1.879-1.395-2.191c-1.04-0.312-2.101,0.163-2.371,1.061
								C353.248,224.605,355.211,224.385,357.014,225.734z"/>
							<path style="fill:#38194B;" d="M348.631,224.55c1.115-0.092,1.903,0.135,1.903,0.135c-0.107-0.866-0.898-1.504-1.86-1.571"/>
							<path style="fill:#FF9A47;" d="M350.686,228.831l-1.786,4.354c-0.029,0.071,0.014,0.151,0.086,0.16l1.873,0.221
								c0.065,0.008,0.121-0.047,0.12-0.117l-0.087-4.576C350.89,228.75,350.732,228.718,350.686,228.831z"/>
							<path style="fill:#FEF2FB;" d="M356.342,234.94c-0.533-0.107-7.139-0.426-7.139-0.426s-0.746,5.008,2.024,4.688
								C353.998,238.883,356.342,234.94,356.342,234.94z"/>
						</g>
					</g>
				</g>
			</g>
		</g>
	</g>
</g>
</svg>
